<?xml version="1.0" encoding="utf-8"?>
<!-- Generator: Adobe Illustrator 24.0.2, SVG Export Plug-In . SVG Version: 6.00 Build 0)  -->
<svg version="1.1" id="Layer_1" xmlns="http://www.w3.org/2000/svg" xmlns:xlink="http://www.w3.org/1999/xlink" x="0px" y="0px"
	 viewBox="0 0 900 138" style="enable-background:new 0 0 900 138;" xml:space="preserve">
<style type="text/css">
	.st0{fill:#FFFFFF;}
	.st1{fill:#F6EB16;}
</style>
<g>
	<path class="st0" d="M29.39,137.53H0.8V0.47h78.56v23.81H29.39v35.34h46.5v23.72h-46.5V137.53z"/>
	<path class="st0" d="M106.18,137.53V0.47h29.06v113.06h55.59v24H106.18z"/>
	<path class="st0" d="M293.58,137.53h-78.94V0.47h78.94v23.81h-49.88v30.09h46.41v23.81h-46.41v35.34h49.88V137.53z"/>
	<path class="st0" d="M432.99,137.53H399.8l-31.88-51.84l-31.88,51.84h-31.13l45.47-70.69L307.83,0.47h32.06l29.53,49.31
		l28.97-49.31h31.31l-43.03,67.97L432.99,137.53z"/>
	<path class="st1" d="M503.11,137.53h-29.06V24.66h-37.22V0.47h103.5v24.19h-37.22V137.53z"/>
	<path class="st1" d="M561.42,137.53V0.47h29.06v137.06H561.42z"/>
	<path class="st1" d="M719.67,43.22c0,14.75-4.61,26.03-13.83,33.84c-9.22,7.81-22.33,11.72-39.33,11.72h-12.47v48.75h-29.06V0.47
		h43.78c16.63,0,29.26,3.58,37.92,10.73C715.35,18.36,719.67,29.03,719.67,43.22z M654.05,64.97h9.56c8.94,0,15.62-1.77,20.06-5.3
		c4.44-3.53,6.66-8.67,6.66-15.42c0-6.81-1.86-11.84-5.58-15.09c-3.72-3.25-9.55-4.88-17.48-4.88h-13.22V64.97z"/>
	<path class="st1" d="M816.22,98.46c0,12.05-4.34,21.55-13.01,28.49c-8.67,6.94-20.74,10.41-36.2,10.41
		c-14.24,0-26.84-2.68-37.8-8.04v-26.3c9.01,4.02,16.63,6.85,22.87,8.49c6.24,1.64,11.95,2.47,17.12,2.47
		c6.21,0,10.97-1.19,14.29-3.56c3.32-2.37,4.98-5.9,4.98-10.59c0-2.62-0.73-4.94-2.19-6.98c-1.46-2.04-3.61-4-6.44-5.89
		c-2.83-1.89-8.6-4.9-17.3-9.04c-8.16-3.83-14.28-7.52-18.35-11.05c-4.08-3.53-7.34-7.64-9.77-12.33
		c-2.43-4.69-3.65-10.17-3.65-16.44c0-11.81,4-21.09,12.01-27.85c8-6.76,19.07-10.14,33.19-10.14c6.94,0,13.56,0.82,19.86,2.47
		c6.3,1.64,12.89,3.96,19.77,6.94l-9.13,22.01c-7.12-2.92-13.01-4.96-17.67-6.12c-4.66-1.16-9.24-1.73-13.74-1.73
		c-5.36,0-9.47,1.25-12.33,3.74c-2.86,2.5-4.29,5.75-4.29,9.77c0,2.5,0.58,4.67,1.74,6.53c1.16,1.86,3,3.65,5.52,5.39
		c2.53,1.74,8.51,4.86,17.94,9.36c12.48,5.97,21.03,11.95,25.66,17.94C813.91,82.41,816.22,89.76,816.22,98.46z"/>
</g>
<polygon class="st0" points="829.6,3.78 829.6,139.16 897.53,71.71 "/>
</svg>
